<?xml version="1.0" standalone="no"?><!DOCTYPE svg PUBLIC "-//W3C//DTD SVG 1.1//EN" "http://www.w3.org/Graphics/SVG/1.1/DTD/svg11.dtd"><svg t="1769393423379" class="icon" viewBox="0 0 1024 1024" version="1.1" xmlns="http://www.w3.org/2000/svg" p-id="14426" xmlns:xlink="http://www.w3.org/1999/xlink" width="200" height="200"><path d="M237.92 918.765s156.768-7.835 260.952-8.789c115.76-1.059 300.164 8.789 300.164 8.789l191.318 21.633s-298.897 17.712-491.482 17.577C309.98 957.844 35.11 940.398 35.11 940.398l202.81-21.633z" opacity=".5" p-id="14427"></path><path d="M145.212 78.283c4.769-6.606 13.32-15.108 25.784-13.789 10.495 1.112 27.39 6.04 46.65 12.604 19.767 6.738 43.477 15.73 68.313 25.755 44.696 18.04 93.562 39.638 130.323 57.871A533.735 533.735 0 0 1 512 152.137c35.065 0 69.21 3.38 102.023 9.778 35.989-17.856 82.727-38.655 125.595-56.118 24.61-10.027 48.104-19.017 67.692-25.761 19.076-6.563 35.843-11.498 46.273-12.613 12.499-1.337 21.024 7.268 25.72 13.839 5.117 7.159 9.371 16.828 13.04 27.443 7.422 21.48 13.803 50.937 19.21 82.97 10.854 64.307 18.233 141.804 21.718 193.536a14.702 14.702 0 0 1-0.231 3.76c24.631 48.42 38.297 101.905 38.297 158.138 0 218.135-205.651 394.971-459.337 394.971S52.663 765.244 52.663 547.109c0-56.619 13.853-110.455 38.807-159.139a14.585 14.585 0 0 1-0.738-5.693c3.517-51.736 10.963-129.238 21.92-193.55 5.456-32.037 11.899-61.5 19.394-82.986 3.704-10.62 8-20.296 13.166-27.458z" p-id="14428"></path><path d="M177.89 140.434c34.175 20.14 117.332 72.198 100.837 82.306-48.889 29.966-117.544 86.885-128.936 101.236-11.393 14.35 6.834-174.478 28.098-183.542z m671.146 0c-34.175 20.14-117.332 72.198-100.837 82.306 48.888 29.966 117.543 86.885 128.936 101.236 11.393 14.35-6.834-174.478-28.099-183.542z" fill="#FFFFFF" opacity=".3" p-id="14429"></path><path d="M371.566 572.161c-97.716 39.076-226.348 27.912-286.72 0 0 106.066 128.749 340.662 408.137 340.662 339.084 0 435.583-219.71 450.56-340.662-32.291 30.703-172.351 40.896-270.629 0-120.741-50.24-90.697-273.738-143.36-273.738S493.711 523.317 371.566 572.16z" fill="#FFFFFF" p-id="14430"></path><path d="M362.789 555.886c30.7 0 55.588-29.474 55.588-65.829s-24.889-65.828-55.588-65.828-55.589 29.473-55.589 65.828 24.89 65.829 55.589 65.829z m324.754 0c30.7 0 55.588-29.474 55.588-65.829s-24.889-65.828-55.588-65.828-55.589 29.473-55.589 65.828 24.89 65.829 55.589 65.829z" fill="#ECEAB9" p-id="14431"></path><path d="M377.417 892.86c0 11.06-2.885 18.734-7.177 24.641-4.514 6.217-11.881 12.22-23.309 17.452-23.59 10.805-59.09 15.904-102.634 15.904s-79.044-5.1-102.634-15.904c-11.428-5.231-18.795-11.235-23.31-17.452-4.291-5.907-7.176-13.581-7.176-24.64 0-22.87 12.745-49.123 37.443-70.49 24.366-21.076 58.251-35.354 95.677-35.354 37.426 0 71.312 14.278 95.677 35.354 24.699 21.367 37.443 47.62 37.443 70.49z m29.257 0c0 66.845-72.698 87.254-162.377 87.254S81.92 959.704 81.92 892.861c0-66.841 72.698-135.101 162.377-135.101s162.377 68.26 162.377 135.1z m500.297 0c0 11.06-2.884 18.734-7.176 24.641-4.515 6.217-11.882 12.22-23.31 17.452-23.59 10.805-59.09 15.904-102.634 15.904s-79.044-5.1-102.634-15.904c-11.427-5.231-18.794-11.235-23.309-17.452-4.292-5.907-7.177-13.581-7.177-24.64 0-22.87 12.745-49.123 37.444-70.49 24.365-21.076 58.25-35.354 95.676-35.354s71.312 14.278 95.677 35.354c24.699 21.367 37.443 47.62 37.443 70.49z m29.258 0c0 66.845-72.699 87.254-162.378 87.254s-162.377-20.41-162.377-87.253c0-66.841 72.698-135.101 162.377-135.101s162.378 68.26 162.378 135.1z" p-id="14432"></path><path d="M244.297 956.709c75.135 0 136.046-16.115 136.046-68.883 0-52.772-60.91-106.66-136.046-106.66s-136.046 53.888-136.046 106.66c0 52.768 60.91 68.883 136.046 68.883z m529.554 0c75.136 0 136.046-15.846 136.046-67.737s-60.91-104.88-136.046-104.88-136.045 52.99-136.045 104.88 60.91 67.737 136.045 67.737z" fill="#FFFFFF" p-id="14433"></path><path d="M290.927 873.79a8.777 8.777 0 1 0-17.124-3.852c-2.364 10.497-4.251 27.115-2.232 43.38 1.98 15.988 8.048 33.832 23.727 43.54a8.777 8.777 0 0 0 9.243-14.927c-8.898-5.506-13.801-16.677-15.55-30.773-1.715-13.824-0.088-28.362 1.936-37.367z m-98.076 11.97a8.777 8.777 0 0 0-16.998-4.389c-2.153 8.35-4.05 21.715-2.879 35.384 1.159 13.496 5.46 28.883 17.303 39.246a8.777 8.777 0 0 0 11.556-13.213c-6.881-6.021-10.377-15.992-11.369-27.534-0.974-11.37 0.644-22.727 2.387-29.494z m541.717-9.043a8.78 8.78 0 0 1 17.127-3.854c2.364 10.498 4.248 27.116 2.232 43.38-1.983 15.989-8.048 33.833-23.73 43.54a8.777 8.777 0 0 1-9.24-14.926c8.898-5.507 13.801-16.677 15.55-30.773 1.712-13.824 0.088-28.362-1.94-37.367z m98.076 11.969a8.777 8.777 0 0 1 16.998-4.389c2.156 8.35 4.052 21.715 2.879 35.384-1.156 13.496-5.46 28.882-17.3 39.245a8.777 8.777 0 0 1-11.56-13.212c6.882-6.021 10.381-15.992 11.37-27.534 0.974-11.37-0.64-22.727-2.387-29.494zM355.366 612.683c-25.714-2.68-65.48-6.425-101.233-8.962-17.876-1.27-34.772-2.238-48.417-2.618-6.82-0.19-12.856-0.234-17.812-0.091-4.898 0.14-8.918 0.465-11.615 1.07a2.929 2.929 0 0 0 1.287 5.712c2.104-0.474 5.641-0.793 10.498-0.934 4.798-0.137 10.717-0.096 17.48 0.094 13.523 0.375 30.326 1.337 48.164 2.604 35.67 2.53 75.372 6.27 101.04 8.944a2.929 2.929 0 0 0 0.608-5.82z m332.311 4.455c23.196-3.118 59.07-7.55 91.32-10.705 16.121-1.577 31.367-2.84 43.682-3.455 6.155-0.31 11.609-0.46 16.088-0.404 4.42 0.056 8.096 0.31 10.58 0.884a2.926 2.926 0 1 1-1.314 5.702c-1.829-0.421-4.965-0.679-9.339-0.734-4.31-0.053-9.631 0.09-15.723 0.395-12.18 0.611-27.32 1.86-43.403 3.434-32.16 3.146-67.961 7.57-91.11 10.685a2.929 2.929 0 0 1-0.78-5.802z m-405.375 36.21c-34.105 11.023-71.82 24.186-96.139 32.943a2.926 2.926 0 0 0 1.98 5.506c24.284-8.745 61.932-21.882 95.958-32.882 17.016-5.5 33.1-10.46 46.139-14.064 6.521-1.802 12.256-3.26 16.952-4.275 4.748-1.027 8.259-1.565 10.412-1.609a2.926 2.926 0 1 0-0.117-5.851c-2.762 0.058-6.744 0.705-11.533 1.74-4.845 1.05-10.696 2.537-17.273 4.357-13.157 3.637-29.33 8.622-46.379 14.134z m557.375 37.299c-21.873-8.324-55.796-20.816-86.478-31.235-15.337-5.21-29.895-9.912-41.744-13.318-5.922-1.703-11.2-3.092-15.574-4.058-4.315-0.953-7.952-1.542-10.503-1.55a2.926 2.926 0 0 0-0.02 5.851c1.88 0.006 4.99 0.471 9.262 1.413 4.21 0.93 9.357 2.282 15.22 3.967 11.72 3.37 26.176 8.037 41.478 13.233 30.597 10.393 64.447 22.856 86.279 31.165a2.926 2.926 0 0 0 2.08-5.468zM362.79 532.48c12.925 0 23.405-17.028 23.405-38.034s-10.48-38.035-23.405-38.035-23.406 17.028-23.406 38.035 10.48 38.034 23.406 38.034z m321.828 2.926c12.926 0 23.406-17.028 23.406-38.035s-10.48-38.034-23.406-38.034-23.406 17.028-23.406 38.034 10.48 38.035 23.406 38.035z" p-id="14434"></path><path d="M359.863 498.834a4.389 4.389 0 1 1-8.78-0.003 4.389 4.389 0 0 1 8.78 0.003z m321.828 2.926a4.389 4.389 0 1 1-8.78-0.003 4.389 4.389 0 0 1 8.78 0.003z" fill="#FFFFFF" p-id="14435"></path><path d="M570.514 556.84c0 9.13-14.353 10.509-33.496 10.713l1.858 38.134c22.498 1.446 40.415 27.063 40.415 58.45 0 32.318-18.993 58.514-42.422 58.514s-42.423-26.196-42.423-58.514c0-27.744 14-50.978 32.785-56.999l-1.93-39.552c-22.128-0.033-39.632-0.664-39.632-10.747 0-10.503 18.993-27.285 42.422-27.285s42.423 16.782 42.423 27.285z" fill="#634011" p-id="14436"></path><path d="M569.051 664.137c-16.384-7.022-51.2 2.437-61.44 7.314 2.438 14.14 12.288 43.594 32.183 42.423 19.895-1.17 32.183-27.794 29.257-49.737z" fill="#FF6A81" p-id="14437"></path></svg>