<?xml version="1.0" standalone="no"?><!DOCTYPE svg PUBLIC "-//W3C//DTD SVG 1.1//EN" "http://www.w3.org/Graphics/SVG/1.1/DTD/svg11.dtd"><svg t="1769393343895" class="icon" viewBox="0 0 1024 1024" version="1.1" xmlns="http://www.w3.org/2000/svg" p-id="8451" xmlns:xlink="http://www.w3.org/1999/xlink" width="200" height="200"><path d="M62.91 512.36a448.47 448.47 0 1 0 896.94 0 448.47 448.47 0 1 0-896.94 0z" fill="#993F02" p-id="8452"></path><path d="M237.25 485s3.25-81.77 11.86-140.08c8.61-58.3 32.87-156.91 32.87-156.91l93.75 162.65L237.25 485z" fill="#F4BD6C" p-id="8453"></path><path d="M257.46 465.83s1.85-46.56 6.75-79.76 18.72-89.34 18.72-89.34l53.38 92.61-78.85 76.49z" fill="#FFEECC" p-id="8454"></path><path d="M222.08 549.25a289.24 243.85 0 1 0 578.48 0 289.24 243.85 0 1 0-578.48 0z" fill="#F4BD6C" p-id="8455"></path><path d="M785.89 485s-3.25-81.77-11.86-140.08-32.87-156.91-32.87-156.91l-93.75 162.65L785.89 485z" fill="#3A3938" p-id="8456"></path><path d="M765.68 465.83s-1.85-46.56-6.75-79.76-18.72-89.34-18.72-89.34l-53.38 92.61 78.85 76.49z" fill="#FFEECC" p-id="8457"></path><path d="M238.88 702.6l-0.05-0.06c-1.04 0.23-1.59 0.35-1.59 0.35l1.64-0.29z m555.25 0l1.64 0.29s-0.55-0.12-1.59-0.35l-0.05 0.06z" fill="#465C62" p-id="8458"></path><path d="M511.32 305.4c-48.82 0-102.88 10.55-143.26 31.96 3.99 26.34 56.3 24.68 62.71 54.11 8.33 38.23 2.39 87.54 96.24 140.09 83.35 46.66 53.09 186.07 189.64 186.26 1.27 0 2.5-0.02 3.71-0.06 49.67-43.79 80.19-103.15 80.19-168.52 0.01-134.66-129.48-243.84-289.23-243.84z" fill="#3A3938" p-id="8459"></path><path d="M327.63 564.3a51.57 51.57 0 1 0 103.14 0 51.57 51.57 0 1 0-103.14 0z" fill="#FFFFFF" p-id="8460"></path><path d="M343.45 564.3a35.75 35.75 0 1 0 71.5 0 35.75 35.75 0 1 0-71.5 0z" fill="#C5C535" p-id="8461"></path><path d="M379.2 550.56a12.29 12.29 0 1 0 24.58 0 12.29 12.29 0 1 0-24.58 0zM593.44 564.3a51.57 51.57 0 1 0 103.14 0 51.57 51.57 0 1 0-103.14 0z" fill="#FFFFFF" p-id="8462"></path><path d="M609.26 564.3a35.75 35.75 0 1 0 71.5 0 35.75 35.75 0 1 0-71.5 0z" fill="#C5C535" p-id="8463"></path><path d="M647.11 550.56a12.29 12.29 0 1 0 24.58 0 12.29 12.29 0 1 0-24.58 0z" fill="#FFFFFF" p-id="8464"></path><path d="M483.58 636.75c0.01-8.26 55.69-6.98 55.86-0.01 0.32 13.04-18.55 31.5-28.31 31.54-9.71 0.05-27.56-17.25-27.55-31.53z" fill="#371E19" p-id="8465"></path><path d="M480.86 728.62l-2.23-2.01 31-34.4v-26.16h3v27.32z" fill="#371E19" p-id="8466"></path><path d="M541.79 728.63l-32.17-35.27 0.4-27.34 2.99 0.05-0.37 26.15 31.37 34.38z" fill="#371E19" p-id="8467"></path></svg>